<?xml version="1.0" encoding="UTF-8" standalone="no"?>
<!-- Created with Inkscape (http://www.inkscape.org/) -->

<svg
   xmlns:dc="http://purl.org/dc/elements/1.1/"
   xmlns:cc="http://creativecommons.org/ns#"
   xmlns:rdf="http://www.w3.org/1999/02/22-rdf-syntax-ns#"
   xmlns:svg="http://www.w3.org/2000/svg"
   xmlns="http://www.w3.org/2000/svg"
   xmlns:sodipodi="http://sodipodi.sourceforge.net/DTD/sodipodi-0.dtd"
   xmlns:inkscape="http://www.inkscape.org/namespaces/inkscape"
   width="210mm"
   height="297mm"
   viewBox="0 0 210 297"
   version="1.1"
   id="svg1663"
   inkscape:version="0.92.4 (5da689c313, 2019-01-14)"
   sodipodi:docname="dog1.svg">
  <defs
     id="defs1657" />
  <sodipodi:namedview
     id="base"
     pagecolor="#ffffff"
     bordercolor="#666666"
     borderopacity="1.0"
     inkscape:pageopacity="0.0"
     inkscape:pageshadow="2"
     inkscape:zoom="0.20011674"
     inkscape:cx="700.35431"
     inkscape:cy="169.69507"
     inkscape:document-units="mm"
     inkscape:current-layer="g3312"
     showgrid="false"
     inkscape:window-width="1920"
     inkscape:window-height="1001"
     inkscape:window-x="-9"
     inkscape:window-y="-9"
     inkscape:window-maximized="1" />
  <metadata
     id="metadata1660">
    <rdf:RDF>
      <cc:Work
         rdf:about="">
        <dc:format>image/svg+xml</dc:format>
        <dc:type
           rdf:resource="http://purl.org/dc/dcmitype/StillImage" />
        <dc:title></dc:title>
      </cc:Work>
    </rdf:RDF>
  </metadata>
  <g
     inkscape:label="Layer 1"
     inkscape:groupmode="layer"
     id="layer1">
    <g
       id="g3312"
       transform="translate(15.679302,-57.93138)">
      <path
         inkscape:connector-curvature="0"
         id="path3207"
         d="m 76.962601,273.74945 c -3.437959,-0.14851 -6.360502,-0.45518 -9.718083,-1.01974 -1.446476,-0.24321 -1.960892,-0.22876 -3.20086,0.09 -1.396759,0.35901 -1.725068,0.40352 -2.966822,0.40225 -1.110785,-0.001 -1.339394,-0.022 -2.70832,-0.24731 -1.032143,-0.16986 -2.512645,-0.58865 -3.735297,-1.0566 -0.9114,-0.34882 -2.279213,-1.08988 -2.989852,-1.61984 -0.713957,-0.53244 -1.387721,-1.35095 -1.577224,-1.91604 -0.28,-0.83497 -0.175343,-1.65205 0.335852,-2.62205 0.610955,-1.15929 0.9958,-2.31757 1.412473,-4.25116 0.516415,-2.39646 1.051653,-4.19342 1.586256,-5.3256 0.631916,-1.33827 1.464502,-2.00957 2.760173,-2.2255 0.150209,-0.025 0.549629,-0.059 0.8876,-0.0754 1.11557,-0.0543 1.606062,-0.21397 2.021127,-0.6577 0.290316,-0.31038 0.608944,-0.98153 0.685726,-1.44442 l 0.03193,-0.19266 -0.258468,0.11431 c -0.589768,0.26082 -1.286096,0.37266 -1.532764,0.24617 -0.332482,-0.17049 -0.340842,-0.41884 -0.03817,-1.13368 0.306795,-0.72454 0.335514,-0.88596 0.307693,-1.72966 -0.02446,-0.74189 -0.142393,-1.41337 -0.440053,-2.5057 -0.168919,-0.61987 -0.398856,-1.62694 -0.457284,-2.00279 -0.06736,-0.43335 -0.05549,-1.81583 0.02016,-2.34417 0.29465,-2.05843 1.117764,-3.99521 2.374462,-5.58706 0.297601,-0.37697 1.137854,-1.21928 1.379522,-1.38291 0.08911,-0.0603 0.293371,-0.20115 0.453918,-0.31294 l 0.291903,-0.20325 -0.16673,-0.0697 c -0.203525,-0.085 -0.209288,-0.1308 -0.02602,-0.2067 0.631971,-0.26177 1.240603,-0.9108 1.567332,-1.67135 0.443838,-1.03315 0.510825,-2.14179 0.292032,-4.83301 -0.160413,-1.97318 -0.119108,-2.73327 0.209449,-3.85423 0.02301,-0.0784 0.0048,-0.1008 -0.100668,-0.12226 -0.182079,-0.0371 -0.601364,-0.42973 -0.784233,-0.73432 l -0.154726,-0.25773 0.245765,-0.21937 c 0.539227,-0.48131 0.782959,-1.35801 0.905955,-3.25867 0.07816,-1.20784 0.125188,-1.60714 0.252318,-2.14261 0.381399,-1.60643 0.971048,-3.15427 1.516011,-3.97956 0.227776,-0.34494 0.396394,-0.51791 1.508781,-1.54771 0.815802,-0.75524 1.265801,-1.22167 1.596084,-1.65439 0.409855,-0.53697 0.492911,-0.8064 0.328858,-1.06681 -0.260377,-0.41331 -0.550936,-0.76022 -1.380657,-1.64842 -1.308143,-1.40035 -1.7091,-2.06699 -2.039599,-3.39109 -0.250479,-1.00353 -0.386893,-2.54354 -0.336981,-3.80437 0.01382,-0.34849 0.01107,-0.63363 -0.006,-0.63363 -0.0171,0 -0.07757,0.0304 -0.134361,0.0676 -0.340535,0.22313 -0.992026,0.32659 -1.589256,0.25237 -0.381899,-0.0475 -0.989854,-0.20589 -0.989854,-0.25796 0,-0.0139 0.109603,-0.15136 0.243555,-0.30541 0.73859,-0.84943 0.858951,-1.63637 0.486976,-3.18393 -0.367341,-1.52827 -0.457633,-2.49499 -0.293914,-3.14676 0.04177,-0.16635 0.06691,-0.31152 0.05582,-0.3226 -0.01107,-0.0111 -0.137092,0.0131 -0.280022,0.0538 -0.142924,0.0406 -0.270823,0.063 -0.284209,0.0496 -0.01339,-0.0134 0.0075,-0.14734 0.0465,-0.29767 0.03898,-0.15034 0.07052,-0.34207 0.07015,-0.42608 -0.0016,-0.41155 -0.247238,-1.04014 -0.694538,-1.77888 l -0.157784,-0.26059 -0.205917,0.30968 c -0.222701,0.3349 -0.652384,0.81982 -0.853075,0.96272 l -0.12485,0.0889 -0.126887,-0.35178 c -0.122775,-0.34036 -0.608208,-1.48574 -1.046132,-2.46836 -0.873004,-1.95885 -1.249564,-2.94108 -1.500721,-3.91455 -0.346949,-1.34471 -0.387072,-2.5488 -0.114147,-3.4257 0.04795,-0.15406 0.08074,-0.28654 0.07288,-0.2944 -0.0078,-0.008 -0.135053,0.0647 -0.28265,0.16125 -0.147596,0.0965 -0.370771,0.21812 -0.495943,0.27017 -0.256533,0.10667 -0.780379,0.22482 -0.8202,0.185 -0.01441,-0.0144 0.03731,-0.12023 0.114926,-0.2352 0.353685,-0.52406 0.662109,-1.4326 0.792953,-2.33581 0.0393,-0.27114 0.102663,-1.03579 0.140855,-1.69922 0.157956,-2.74385 0.492658,-3.82502 1.527011,-4.93259 0.185611,-0.19875 0.294919,-0.34749 0.255367,-0.34749 -0.134904,0 -0.879526,0.287 -1.328143,0.5119 -0.374265,0.18763 -1.079232,0.6062 -1.657237,0.98398 -0.106555,0.0696 -0.108926,0.0685 -0.08463,-0.0407 0.01376,-0.0618 0.107474,-0.38887 0.208288,-0.72683 0.100808,-0.33795 0.176751,-0.62099 0.168757,-0.62898 -0.008,-0.008 -0.110287,0.0586 -0.22732,0.1479 -0.128511,0.0981 -0.263957,0.16242 -0.341986,0.16242 -0.09705,0 -0.176612,0.0538 -0.319714,0.21621 -0.104781,0.11892 -0.222185,0.27766 -0.260888,0.35276 -0.135903,0.26371 -0.716585,1.00833 -1.331131,1.70693 -0.811077,0.922 -1.015838,1.18029 -1.203508,1.51806 -0.323632,0.58247 -0.484347,1.29827 -0.39428,1.75607 0.0682,0.34666 0.200481,0.64704 0.369916,0.84002 l 0.132306,0.15068 -1.147966,-0.0132 c -1.355507,-0.0156 -1.613089,-0.0641 -2.305169,-0.43359 -1.141177,-0.60934 -2.033643,-1.42384 -2.746927,-2.50694 -0.638002,-0.9688 -1.091254,-2.23655 -1.197002,-3.34803 -0.02151,-0.22599 -0.05021,-0.33 -0.0911,-0.33 -0.03285,0 -0.07261,0.0209 -0.08838,0.0464 -0.05414,0.0876 -0.486471,0.27829 -0.830431,0.36626 -0.524592,0.13416 -1.562649,0.10023 -2.070802,-0.0677 -0.04382,-0.0145 -0.11435,-0.0375 -0.156757,-0.051 -0.06303,-0.0202 -0.05263,-0.0396 0.0569,-0.10621 0.171805,-0.10448 0.405103,-0.37039 0.516437,-0.58862 0.345137,-0.67653 0.331993,-1.56746 -0.04532,-3.06939 -0.08778,-0.34945 -0.442628,-1.39084 -1.013375,-2.974 -0.404189,-1.12116 -0.501126,-1.6334 -0.503255,-2.65929 -0.0021,-1.12027 0.135017,-1.76799 0.564973,-2.6645 0.60552,-1.26258 1.717423,-2.29662 3.311459,-3.07954 0.356744,-0.17522 0.648631,-0.33572 0.648631,-0.35666 0,-0.021 -0.04607,-0.052 -0.102416,-0.0691 -0.347331,-0.10535 -1.945893,-1.05837 -1.945893,-1.16009 0,-0.0202 0.06657,-0.0503 0.147936,-0.0668 0.310541,-0.0632 1.240414,-0.35033 1.685935,-0.52067 0.709521,-0.27127 0.874783,-0.34729 2.889835,-1.32927 0.557693,-0.27177 1.022767,-0.49414 1.033487,-0.49414 0.0107,0 0.14844,-0.06 0.306031,-0.13343 1.389462,-0.64703 2.964332,-0.89022 4.337629,-0.66982 0.831333,0.13342 1.189927,0.22938 2.913151,0.77956 1.330492,0.42479 1.251742,0.40314 1.251742,0.34424 0,-0.0274 -0.07418,-0.1977 -0.164859,-0.37858 -0.539722,-1.07665 -1.449504,-2.05757 -3.082177,-3.3232 -0.254474,-0.19727 -0.483159,-0.3794 -0.508196,-0.40475 -0.06785,-0.0687 1.1052,-0.003 1.866235,0.10491 2.317389,0.3278 3.674234,0.93307 5.015532,2.23734 l 0.463735,0.45093 0.14437,-0.28878 c 0.675598,-1.35139 1.73953,-2.4946 3.093053,-3.32352 0.448919,-0.27493 0.710409,-0.40458 0.745413,-0.36958 0.01559,0.0156 0.02855,0.24518 0.02871,0.51013 0.0011,1.33451 0.64082,2.40123 1.979956,3.30041 1.072018,0.71982 1.860256,0.92834 3.277046,0.8669 0.425597,-0.0184 1.232565,-0.0462 1.79327,-0.0616 l 1.01946,-0.0281 -0.215319,-0.25035 c -0.208465,-0.24237 -0.506879,-0.67959 -1.113081,-1.63081 -0.159978,-0.25102 -0.380168,-0.5585 -0.489315,-0.68327 -0.109146,-0.12477 -0.198449,-0.24591 -0.198449,-0.26921 0,-0.0528 0.725117,-0.21433 1.388296,-0.30918 0.73638,-0.10532 1.819452,-0.0955 2.549187,0.0231 0.926502,0.15059 1.82136,0.48123 2.642554,0.97639 0.148731,0.0897 0.292198,0.16311 0.318821,0.16317 0.02661,5e-5 0.09629,-0.16556 0.154795,-0.36806 0.113867,-0.39406 0.489229,-1.17553 0.709457,-1.47702 0.722278,-0.9888 1.685333,-1.64785 3.070161,-2.10099 0.660921,-0.21627 1.520678,-0.38022 2.472217,-0.47143 0.61653,-0.0591 2.783118,-0.034 3.075811,0.0356 l 0.154145,0.0367 -0.267941,0.1761 c -0.531265,0.34917 -1.182052,0.84258 -1.366415,1.03599 -0.10347,0.10854 -0.377948,0.43291 -0.60995,0.72081 l -0.421833,0.52345 0.143989,0.0143 c 0.200282,0.0199 1.031654,-0.15144 1.428488,-0.2944 0.647437,-0.23324 1.018299,-0.55764 1.397037,-1.222 0.279097,-0.48956 0.481235,-1.101 0.579371,-1.75244 0.05987,-0.39746 0.06314,-0.55034 0.01941,-0.90789 -0.06055,-0.49507 -0.253312,-1.10951 -0.455842,-1.453 -0.07707,-0.1307 -0.140118,-0.26001 -0.140118,-0.28734 0,-0.0348 0.159714,-0.0405 0.534839,-0.0188 1.741584,0.10076 2.953026,0.44663 4.141319,1.18233 0.23112,0.14309 0.482901,0.31292 0.559516,0.37738 0.07661,0.0645 0.152027,0.10447 0.167591,0.0889 0.01559,-0.0156 0.07367,-0.20759 0.129134,-0.42671 0.05546,-0.21912 0.197805,-0.62941 0.316327,-0.91176 0.688903,-1.64114 1.978241,-2.96787 4.251207,-4.37448 0.210014,-0.12997 0.397614,-0.23043 0.416893,-0.22324 0.0193,0.007 -0.124893,0.3754 -0.320375,0.81824 -0.622498,1.41018 -0.937206,2.46448 -1.04954,3.51607 -0.04774,0.4467 -0.0314,0.98144 0.03312,1.08586 0.01333,0.0215 0.06747,-0.008 0.120361,-0.0667 0.690134,-0.75961 1.901707,-2.031 2.245598,-2.35646 1.08854,-1.03019 2.04356,-1.53976 3.45217,-1.84198 0.61977,-0.13297 1.32171,-0.18872 3.20902,-0.25488 2.09284,-0.0734 3.24939,-0.19111 4.19903,-0.42751 0.31919,-0.0795 0.58036,-0.12901 0.58036,-0.11011 0,0.0931 -0.15246,0.37643 -0.75105,1.39564 -0.0714,0.12157 -0.26411,0.38806 -0.3288,0.45469 -0.0323,0.0332 -0.077,0.0947 -0.0994,0.13655 -0.0375,0.0701 0.0409,0.0762 0.99031,0.0768 0.88865,5.4e-4 1.10599,0.0152 1.57359,0.10586 1.94902,0.3779 3.3031,1.33835 4.20739,2.98427 0.48865,0.88941 0.7172,1.74131 0.91705,3.41827 0.0555,0.46581 0.28226,1.75385 0.39263,2.23037 0.32206,1.39053 0.69955,2.21624 1.25233,2.73931 0.20243,0.19154 0.59965,0.38633 0.84398,0.41387 0.10815,0.0122 0.19564,0.0451 0.19444,0.0731 -0.004,0.0833 -0.64656,0.58059 -1.05352,0.81481 -0.5252,0.30228 -0.87256,0.40611 -1.42502,0.42594 -0.33202,0.0119 -0.45262,0.0318 -0.44571,0.0733 0.005,0.0313 0.0935,0.30275 0.19623,0.60317 0.73728,2.15627 0.52773,4.39273 -0.59068,6.30423 -0.54857,0.93759 -0.94159,1.30857 -1.86701,1.76232 -0.28853,0.14148 -0.67167,0.34563 -0.85142,0.45368 -0.17975,0.10805 -0.33685,0.19645 -0.3491,0.19645 -0.0123,0 -10e-4,-0.0768 0.0248,-0.17061 0.088,-0.31879 0.0229,-0.79456 -0.15894,-1.16099 -0.24809,-0.49994 -0.82563,-1.04505 -1.42036,-1.34058 -0.20586,-0.10229 -0.93455,-0.39589 -1.84347,-0.74274 -0.8057,-0.30746 -1.55113,-0.67413 -1.88274,-0.92609 l -0.26686,-0.20277 -0.21108,0.11281 c -0.16945,0.0906 -0.26047,0.10942 -0.46144,0.0957 -0.13769,-0.009 -0.29131,-0.0336 -0.34138,-0.0538 -0.10484,-0.0421 0.1824,0.2443 0.45592,0.45472 0.0997,0.0767 0.32055,0.24691 0.49072,0.3782 0.17017,0.13129 0.66176,0.47454 1.09243,0.76277 0.43067,0.28824 0.78808,0.53795 0.79424,0.55492 0.006,0.017 -0.0296,0.0979 -0.0796,0.17976 -0.10964,0.17984 -0.69334,0.5625 -1.22888,0.80561 -0.2128,0.0966 -0.395,0.18207 -0.40489,0.18993 -0.01,0.008 0.13349,0.1521 0.31863,0.32053 0.53319,0.48508 1.09833,1.07983 1.47904,1.55654 0.0476,0.0596 0.15824,0.19371 0.24586,0.29802 0.0876,0.10431 0.23101,0.28678 0.31863,0.40549 0.0876,0.11872 0.25149,0.33469 0.36414,0.47994 0.11266,0.14525 0.25604,0.33221 0.31863,0.41547 0.85019,1.13105 1.7725,2.12557 2.42383,2.61362 0.0939,0.0703 0.17038,0.15107 0.17001,0.17939 -0.002,0.10495 -0.48933,0.57129 -0.86416,0.82592 -0.2128,0.14456 -0.3869,0.2768 -0.3869,0.29387 0,0.017 0.20483,0.19742 0.45518,0.40077 0.68198,0.55395 1.50172,1.37467 2.1004,2.10289 0.0715,0.087 0.1607,0.1939 0.19825,0.23765 0.0681,0.0794 0.15889,0.19066 0.40113,0.49184 0.20936,0.26032 0.33861,0.45891 0.3144,0.48312 -0.0595,0.0595 -1.07453,0.20716 -1.59175,0.23155 -0.3192,0.0151 -0.58035,0.0456 -0.58035,0.0679 0,0.0223 0.0628,0.12675 0.13948,0.2321 0.69414,0.95317 1.14805,2.06723 1.40404,3.44607 0.0929,0.50022 0.14905,1.18618 0.13364,1.63178 -0.0176,0.50826 -0.0742,0.63397 -0.3619,0.80342 -0.33929,0.19986 -1.34242,0.0665 -2.14691,-0.2853 -0.14447,-0.0632 -0.27254,-0.10501 -0.2846,-0.0929 -0.0264,0.0264 0.10906,0.42736 0.25075,0.74239 0.0563,0.12517 0.15245,0.34025 0.21368,0.47794 0.0612,0.13769 0.12983,0.28107 0.15245,0.31862 0.0226,0.0375 0.10361,0.18737 0.17999,0.33291 0.0764,0.14555 0.17618,0.31965 0.22178,0.3869 0.0456,0.0673 0.17164,0.25542 0.28011,0.41814 0.29949,0.44931 0.64252,0.90079 0.93381,1.22899 0.31709,0.35728 1.13799,1.15851 1.29613,1.26507 0.0626,0.0422 0.21947,0.15885 0.34864,0.25927 0.52586,0.40884 1.12373,0.7859 1.73992,1.0973 l 0.2906,0.14686 -0.17681,0.088 c -0.69259,0.34467 -1.8849,0.67977 -2.57787,0.72452 -0.24409,0.0157 -0.44313,0.0409 -0.44229,0.0559 5.3e-4,0.015 0.0604,0.1092 0.13241,0.20933 0.3539,0.49226 0.82195,1.43634 0.82195,1.65791 0,0.042 0.0192,0.0958 0.0426,0.11957 0.0703,0.0714 0.31488,1.37687 0.34495,1.8412 0.0154,0.23784 0.0366,0.46315 0.047,0.5007 0.0104,0.0376 0.04,0.80354 0.0656,1.7022 0.0605,2.11791 0.12694,2.73794 0.39192,3.65587 0.24121,0.83557 0.65713,1.52311 1.26603,2.0928 l 0.39043,0.36529 -0.4891,0.0301 c -0.6213,0.0382 -1.30247,-0.0276 -1.83525,-0.17742 -0.43268,-0.12166 -1.04628,-0.40502 -1.30599,-0.60311 -0.0823,-0.0628 -0.16243,-0.10142 -0.17801,-0.0858 -0.0156,0.0156 -0.003,0.17718 0.0287,0.35911 0.0844,0.48948 0.11459,1.98031 0.0524,2.58883 -0.18506,1.81157 -0.80589,3.58963 -1.95318,5.59381 -0.46831,0.8181 -1.63056,2.44768 -1.69777,2.38046 -0.0223,-0.0223 -0.0999,-0.20344 -0.17252,-0.40255 -0.0726,-0.19911 -0.14939,-0.36202 -0.17064,-0.36202 -0.0566,0 -0.14871,0.30979 -0.20536,0.69061 -0.0984,0.66149 0.091,1.68196 0.49284,2.65496 0.26004,0.62974 0.72933,1.56223 1.35155,2.68556 0.50291,0.90791 1.05428,2.15053 1.19163,2.68556 0.01,0.0375 0.0712,0.26286 0.13675,0.5007 0.0656,0.23783 0.2074,0.77039 0.31517,1.18346 0.41552,1.59265 0.92706,2.87418 1.41463,3.54399 0.15813,0.21724 0.19769,0.30241 0.15857,0.34139 -0.0328,0.0327 -0.24046,0.0518 -0.56173,0.0516 -0.39498,-4.6e-4 -0.59939,-0.0248 -0.90876,-0.10912 -0.21955,-0.0598 -0.40864,-0.0993 -0.42021,-0.0878 -0.0116,0.0115 0.0308,0.23478 0.0942,0.49601 0.0634,0.26125 0.16685,0.72079 0.2299,1.02121 0.63401,3.02076 1.35452,4.57332 2.75924,5.94563 0.31296,0.30574 0.47305,0.49247 0.43547,0.50795 -0.75451,0.31067 -1.11436,0.4466 -1.35669,0.51247 -0.51375,0.13966 -0.60097,0.28916 -0.59367,1.01762 0.003,0.26547 0.0119,0.53388 0.0206,0.59646 0.009,0.0626 0.0292,0.2879 0.0456,0.5007 0.0164,0.2128 0.0409,0.48121 0.0544,0.59647 l 0.0246,0.20957 0.48596,0.027 c 0.69172,0.0384 0.88372,0.10232 2.01192,0.66958 0.33859,0.17025 0.71753,0.34064 0.84209,0.37866 1.90732,0.58211 2.84807,0.97958 3.82239,1.61496 0.65252,0.42553 1.41084,1.12993 1.83604,1.70549 0.41872,0.56681 0.87411,1.68818 0.98378,2.42253 0.0149,0.10014 0.036,0.21279 0.0467,0.25035 0.0254,0.0892 0.19397,1.479 0.22905,1.88899 0.015,0.17525 0.0354,0.38008 0.0454,0.45518 0.01,0.0751 0.0411,0.33115 0.0692,0.56898 0.0281,0.23783 0.0712,0.51051 0.0957,0.60597 0.0246,0.0954 0.0518,0.22859 0.0605,0.29586 0.035,0.27077 0.27172,1.01088 0.44679,1.39683 0.18624,0.41057 0.52981,0.9882 0.62144,1.04484 0.18283,0.113 -0.14246,0.25717 -0.79218,0.35112 -0.47796,0.0691 -0.96293,0.004 -1.34991,-0.18203 l -0.26702,-0.12815 v 0.10501 c 0,0.25969 0.25232,1.26348 0.42144,1.67663 0.24157,0.59009 0.42577,0.89752 0.72439,1.20895 0.45273,0.47215 1.00388,0.7498 1.66491,0.83872 0.13143,0.0177 0.23897,0.04 0.23897,0.0497 0,0.01 -0.0917,0.2062 -0.20375,0.43682 -0.11206,0.2306 -0.19853,0.4245 -0.19215,0.43088 0.006,0.006 0.21585,0.0422 0.46548,0.0795 1.47833,0.22124 3.19387,0.81263 4.58303,1.57988 0.89212,0.49273 2.04428,1.32336 2.49674,1.79998 0.54427,0.57333 0.93091,1.49904 1.07153,2.56556 0.0182,0.13769 0.0391,0.29132 0.0466,0.34138 0.0395,0.2658 0.049,2.05505 0.0143,2.68557 -0.0928,1.68622 -0.26138,2.51227 -0.71024,3.48077 -0.57139,1.23289 -1.59272,2.3184 -2.9177,3.10099 -1.44262,0.8521 -2.82284,1.32558 -5.35925,1.83851 -0.63761,0.12895 -2.01579,0.32009 -3.45936,0.47979 -1.38815,0.15357 -1.48594,0.19707 -2.04356,0.90906 -0.93069,1.18831 -1.82226,1.5731 -4.01133,1.7312 -0.5134,0.0371 -0.899,0.0354 -1.54761,-0.007 -0.55908,-0.0363 -1.81652,-0.0526 -3.56422,-0.0463 -2.53509,0.009 -3.73929,-0.0238 -4.87836,-0.13345 -0.4678,-0.045 -1.71092,-0.25604 -2.25314,-0.38247 -0.15021,-0.0351 -0.5189,-0.11792 -0.81932,-0.18421 -2.91282,-0.64274 -4.7296,-1.38395 -5.80009,-2.36634 -0.626273,-0.57472 -0.908585,-0.63901 -2.78005,-0.63297 -1.043611,0.003 -1.653614,0.0312 -2.737911,0.12517 -1.598073,0.13843 -2.136504,0.1462 -3.657359,0.0528 -0.600837,-0.0369 -1.137059,-0.0674 -1.191599,-0.0678 -0.147887,-10e-4 -0.242217,-0.12283 -0.242217,-0.31265 0,-0.11944 0.06149,-0.27221 0.21004,-0.52182 0.245948,-0.41328 0.524555,-0.70654 0.839033,-0.88316 0.123936,-0.0696 0.225356,-0.14099 0.225383,-0.15864 0,-0.0395 -0.153058,-0.0644 -0.796517,-0.12969 -0.635772,-0.0645 -1.397285,-0.17738 -2.54901,-0.37771 -0.500696,-0.0871 -1.104946,-0.19103 -1.342776,-0.23098 -0.237835,-0.04 -0.48875,-0.0821 -0.557597,-0.0937 -0.155623,-0.0262 -0.155601,-0.0267 -0.03,0.81869 0.114308,0.76928 0.138226,2.04818 0.04833,2.58528 -0.137285,0.82049 -0.422457,1.40415 -0.939459,1.92281 -0.866558,0.86932 -1.863095,1.13082 -5.023134,1.31812 -1.230845,0.0729 -1.277343,0.0733 -2.533494,0.019 z m 3.157083,-1.19839 c 0.309407,-0.0411 0.811243,-0.12682 1.115188,-0.1905 3.418417,-0.71626 4.348004,-2.59784 2.804096,-5.67583 -0.176756,-0.35239 -0.250044,-0.54235 -0.213416,-0.55318 0.0307,-0.009 0.556828,-0.0501 1.169223,-0.0912 0.612396,-0.0411 1.121393,-0.0827 1.131113,-0.0924 0.04554,-0.0455 -0.364776,-3.80834 -0.474057,-4.3472 -0.252087,-1.24304 -0.599595,-1.9295 -1.633943,-3.22767 -0.737504,-0.92561 -1.2405,-1.75079 -1.323513,-2.17124 -0.02661,-0.13483 -0.01941,-0.14305 0.169913,-0.19297 0.505357,-0.13326 0.869724,-0.1964 1.278773,-0.2216 0.244093,-0.0151 0.4438,-0.0402 0.4438,-0.0558 0,-0.0157 -0.02763,-0.0689 -0.06139,-0.1183 -0.07835,-0.11458 -0.3937,-0.88774 -0.618154,-1.51554 -0.38828,-1.08601 -0.664474,-2.12794 -0.876917,-3.30811 -0.119184,-0.66214 -0.169983,-2.29271 -0.123173,-3.95389 0.04629,-1.64278 0.088,-1.9862 0.2412,-1.9862 0.130522,0 0.364158,0.25507 0.696296,0.76018 0.186009,0.28287 0.356153,0.51432 0.378098,0.51432 0.02193,0 -0.0091,-0.13826 -0.0689,-0.30725 -0.506895,-1.43137 -0.684931,-2.58197 -0.646201,-4.17627 0.0229,-0.94187 0.08222,-1.53224 0.236362,-2.3518 0.07561,-0.40202 0.488142,-2.09535 0.588633,-2.4162 0.0782,-0.24967 0.07177,-0.25316 -0.273457,-0.14842 -0.265538,0.0806 -1.743815,0.316 -1.776835,0.28298 -0.01263,-0.0126 0.03844,-0.13255 0.113474,-0.26652 0.07503,-0.13396 0.252232,-0.49961 0.393786,-0.81255 0.628185,-1.38878 0.834102,-1.76454 1.156923,-2.11125 0.236577,-0.25407 0.419817,-0.34672 0.685775,-0.34672 0.211653,0 0.490707,0.10308 0.525657,0.19417 0.02398,0.0625 -0.156548,0.56152 -0.455004,1.25755 -0.0901,0.21013 -0.155709,0.39016 -0.14579,0.40007 0.02677,0.0268 0.537737,-0.17452 1.049374,-0.41348 0.247931,-0.11579 0.460326,-0.20098 0.471992,-0.18932 0.02704,0.0271 -0.114039,0.61497 -0.219083,0.91312 -0.04408,0.12517 -0.197412,0.59628 -0.340686,1.04691 -0.143274,0.45063 -0.317407,0.99343 -0.386958,1.20623 -0.361997,1.10755 -0.652905,2.48017 -0.709725,3.34882 -0.06668,1.01932 0.263538,2.82856 0.741853,4.0646 0.230421,0.59544 0.532044,1.31058 0.726768,1.72315 0.108995,0.23092 0.198175,0.44937 0.198175,0.48543 0,0.0485 -0.09038,0.074 -0.347234,0.0981 -0.681775,0.0639 -1.262817,-0.0109 -1.752701,-0.22547 -0.06363,-0.0279 -0.07198,-0.004 -0.05777,0.16371 0.201503,2.38003 0.441951,3.80143 0.934104,5.5219 0.324229,1.13348 0.695505,2.06676 1.270623,3.19398 l 0.352293,0.6905 -0.389975,0.0325 c -0.21448,0.0179 -0.672495,0.0223 -1.017804,0.01 -0.453811,-0.0163 -0.619622,-0.009 -0.598198,0.0281 0.01629,0.0279 0.125517,0.19403 0.242711,0.36928 1.228281,1.83664 1.826731,3.58157 2.341679,6.82769 0.189089,1.19197 0.292709,1.75083 0.341546,1.84209 0.11971,0.22368 0.603337,0.41818 1.312756,0.52796 0.242232,0.0375 1.060276,0.0987 1.81786,0.13605 2.214899,0.10915 2.660311,0.23843 2.539386,0.73706 -0.04285,0.17674 -0.566941,0.66716 -1.063491,0.99518 l -0.421242,0.27828 0.172251,0.0292 c 0.362836,0.0615 3.816343,0.0863 4.769575,0.0344 0.896315,-0.0489 2.326351,-0.21004 2.424428,-0.27316 0.02699,-0.0174 -0.0066,-0.27446 -0.08695,-0.66555 -0.146403,-0.71258 -0.290602,-1.61252 -0.335488,-2.09383 -0.01634,-0.17524 -0.03672,-0.36388 -0.04527,-0.4192 -0.05386,-0.34869 -0.120688,-2.18613 -0.09833,-2.70364 l 0.02683,-0.6204 -0.441913,-0.0253 c -0.254711,-0.0146 -0.576887,-0.0671 -0.760536,-0.12385 -0.409296,-0.12653 -1.297261,-0.50218 -1.297261,-0.54879 0,-0.0197 0.117775,-0.0798 0.261726,-0.13368 0.781373,-0.29234 1.179551,-0.72233 1.28601,-1.38874 0.04951,-0.30984 0.0063,-1.08787 -0.09209,-1.66061 -0.08974,-0.52219 -0.182111,-1.13851 -0.269447,-1.79796 -0.04973,-0.37553 -0.115807,-0.84664 -0.146833,-1.04692 -0.03371,-0.21761 -0.05632,-0.82206 -0.05619,-1.50209 0,-1.06214 0.0084,-1.17652 0.123011,-1.717 0.148516,-0.70033 0.147994,-0.68683 0.02484,-0.64774 -0.17588,0.0558 -0.924395,0.0282 -1.24756,-0.046 -0.527909,-0.12126 -1.7737,-0.68951 -1.957951,-0.89311 -0.07075,-0.0782 -0.06758,-0.0848 0.05521,-0.11445 0.238071,-0.0575 0.764325,-0.34505 1.003827,-0.54843 0.250727,-0.2129 0.573166,-0.66376 0.743955,-1.04026 0.05679,-0.12518 0.22169,-0.56556 0.366448,-0.97864 0.144769,-0.41307 0.313128,-0.87623 0.374147,-1.02923 l 0.110937,-0.27819 -0.452816,-0.025 c -0.249044,-0.0137 -0.46217,-0.0343 -0.473611,-0.0457 -0.01145,-0.0114 0.0741,-0.36661 0.19009,-0.78928 0.506157,-1.84451 0.579569,-2.12353 0.723128,-2.74853 0.295553,-1.28661 0.392006,-2.0654 0.393269,-3.17513 4.52e-4,-0.40696 -0.01113,-0.75931 -0.0258,-0.78301 -0.01462,-0.0237 -0.02779,-0.26426 -0.02925,-0.53458 -0.0032,-0.56566 0.07578,-0.92933 0.390646,-1.80344 0.352094,-0.97748 0.365368,-1.04001 0.363986,-1.715 -0.0016,-0.72718 -0.04881,-0.88098 -0.476025,-1.54728 -0.299848,-0.46763 -0.354223,-0.64279 -0.274505,-0.88434 0.04527,-0.13723 0.462068,-0.57256 0.548161,-0.57256 0.07122,0 0.676781,0.65376 0.844285,0.91149 0.299247,0.46044 0.406974,0.86701 0.397716,1.50096 -0.008,0.55025 -0.07829,0.93583 -0.389829,2.13935 -0.257646,0.99533 -0.285107,1.30827 -0.215685,2.45788 0.07551,1.25054 0.04371,1.87036 -0.165881,3.23186 -0.154016,1.00057 -0.367115,1.83312 -0.697667,2.72573 l -0.141295,0.38156 0.149661,-0.0297 c 0.08231,-0.0163 0.344244,-0.13902 0.582079,-0.27262 0.23783,-0.1336 0.43822,-0.22845 0.445306,-0.21077 0.01279,0.0319 -0.4483,1.82273 -0.726757,2.82245 -0.326638,1.17268 -0.740316,2.03737 -1.305928,2.72974 -0.146409,0.17922 -0.148527,0.18693 -0.04554,0.16542 0.05942,-0.0124 0.21018,-0.0359 0.335003,-0.0522 0.304155,-0.0397 0.909003,-0.26428 1.095942,-0.40686 0.08306,-0.0633 0.278064,-0.27942 0.433348,-0.48015 0.155285,-0.20073 0.290479,-0.35681 0.300446,-0.34685 0.0099,0.01 -0.02392,0.30578 -0.07529,0.65739 -0.165267,1.13124 -0.235738,2.15598 -0.233845,3.40049 0.0022,1.30643 0.02511,1.49005 0.452536,3.59592 0.252791,1.24545 0.342315,2.01143 0.311187,2.66281 -0.02263,0.47384 -0.102942,0.97233 -0.193654,1.20216 -0.02984,0.0755 -0.01984,0.0825 0.07577,0.0531 0.06055,-0.0186 0.21718,-0.0449 0.348062,-0.0584 0.224685,-0.0232 0.246689,-0.0158 0.3942,0.13172 0.235508,0.23551 0.263571,0.40922 0.228444,1.4141 -0.03151,0.9007 0.01968,1.91545 0.140521,2.78774 0.0783,0.56514 0.08542,0.6234 0.204616,1.67722 0.05719,0.50562 0.143863,1.01951 0.211093,1.25149 0.21776,0.75145 0.65928,1.36657 1.35976,1.89443 0.95653,0.72082 2.22454,1.20858 4.43799,1.70716 0.31294,0.0705 0.75333,0.17025 0.97864,0.22169 1.69781,0.38763 3.79641,0.59806 5.98091,0.59974 1.09793,10e-4 5.12725,-0.12868 5.73961,-0.18449 1.48536,-0.13539 2.80351,-0.74709 3.36336,-1.5608 0.27659,-0.40201 0.34076,-0.60407 0.34215,-1.07741 0.001,-0.38987 -0.0136,-0.4673 -0.15,-0.78693 -0.17887,-0.41922 -0.4508,-0.80167 -0.86447,-1.21578 -0.82959,-0.83051 -1.6113,-1.22064 -3.41898,-1.7063 -2.77414,-0.74531 -3.46514,-1.11452 -3.94446,-2.10756 -0.28683,-0.59422 -0.35046,-1.03724 -0.34792,-2.42217 0.003,-1.34571 0.0567,-2.19359 0.22418,-3.50489 0.20885,-1.63514 0.25201,-2.20905 0.23275,-3.09522 -0.0181,-0.83107 -0.0206,-0.84922 -0.19485,-1.3883 -0.13432,-0.41554 -0.17698,-0.62244 -0.17833,-0.86484 -0.002,-0.31323 0.003,-0.32715 0.30077,-0.82226 0.66978,-1.11493 1.01163,-1.92298 1.38524,-3.27436 0.0346,-0.12517 0.0932,-0.39145 0.13026,-0.59173 0.037,-0.20028 0.0788,-0.42559 0.0928,-0.5007 0.28587,-1.53305 0.31599,-3.84792 0.0887,-6.81462 -0.057,-0.74371 -0.0624,-0.9656 -0.0566,-2.33449 0.0179,-4.24026 0.0147,-4.41999 -0.0914,-5.16629 -0.1427,-1.00357 -0.13616,-0.97015 -0.30738,-1.56893 -0.0857,-0.29962 -0.15579,-0.56388 -0.15579,-0.58724 0,-0.0256 0.31594,-0.0323 0.79732,-0.0167 l 0.79731,0.0258 -0.1475,-0.18958 c -0.0811,-0.10426 -0.16073,-0.19981 -0.17689,-0.21232 -0.0161,-0.0125 -0.18869,-0.25832 -0.38342,-0.54622 -0.39724,-0.5873 -0.75357,-1.24129 -0.99548,-1.82705 -0.19999,-0.48426 -0.46065,-1.42187 -0.50497,-1.81645 -0.0182,-0.16159 -0.039,-0.34501 -0.0462,-0.40759 -0.007,-0.0626 -0.0275,-0.27767 -0.0449,-0.47794 -0.0936,-1.07499 -0.31526,-2.10794 -0.56834,-2.648 -0.15816,-0.33751 -0.17033,-0.38619 -0.10189,-0.40753 0.0427,-0.0133 0.26206,-0.0944 0.48738,-0.18027 0.25956,-0.0989 0.48888,-0.15591 0.62587,-0.15567 0.11892,0 0.21621,-0.009 0.21621,-0.0198 0,-0.0111 -0.0396,-0.0879 -0.088,-0.1707 -0.11256,-0.1926 -0.47677,-1.08324 -0.64788,-1.58435 -0.17692,-0.51812 -0.39723,-1.22187 -0.69821,-2.23038 -0.17283,-0.5791 -0.57302,-1.7837 -0.6616,-1.99141 -0.024,-0.0563 -0.0636,-0.1485 -0.0879,-0.20483 -0.0243,-0.0563 -0.0835,-0.20495 -0.1315,-0.33026 -0.048,-0.12531 -0.255,-0.56569 -0.46004,-0.97863 -0.7634,-1.53745 -1.23796,-2.70846 -1.46639,-3.61843 -0.1111,-0.44257 0.0274,-1.16426 0.37137,-1.93451 0.27509,-0.61611 0.44451,-1.13961 0.47933,-1.48119 l 0.0323,-0.31677 -0.28647,0.40966 c -1.097,1.56873 -2.52452,2.94552 -4.18407,4.0354 -1.11721,0.73371 -3.53985,2.02146 -3.63116,1.93015 -0.0117,-0.0117 0.012,-0.25264 0.0527,-0.53543 0.17459,-1.21309 0.29921,-2.53973 0.23858,-2.53973 -0.0158,0 -0.1772,0.15729 -0.35863,0.34953 -1.28226,1.35866 -2.66296,2.55474 -3.925794,3.40086 -0.974733,0.65308 -1.989059,0.86841 -2.203481,0.46777 -0.05306,-0.0992 -0.05215,-0.14669 0.0061,-0.32372 0.03758,-0.11412 0.05944,-0.20748 0.0486,-0.20748 -0.01086,0 -0.108722,0.0612 -0.217529,0.13611 -0.402866,0.27717 -1.519458,0.82101 -2.048948,0.99793 -1.175837,0.3929 -2.00374,0.35532 -3.436604,-0.15595 -0.405614,-0.14473 -0.715312,-0.28585 -1.606379,-0.73199 -0.420371,-0.21046 -0.791121,-0.38266 -0.823899,-0.38266 -0.04634,0 -0.06512,0.2065 -0.08447,0.92987 -0.01365,0.51143 -0.03882,0.95248 -0.05593,0.98012 -0.02124,0.0344 -0.07656,0.0222 -0.175386,-0.0387 -1.080851,-0.66597 -2.610034,-0.88028 -5.105782,-0.71556 -0.600837,0.0397 -1.42016,0.0952 -1.82072,0.12348 -1.314772,0.0928 -3.634957,-0.004 -5.098013,-0.21159 -0.75667,-0.1076 -1.564983,-0.23974 -2.093823,-0.34228 -0.275382,-0.0534 -0.654319,-0.12552 -0.84208,-0.16027 -0.69793,-0.12921 -2.412456,-0.53751 -2.412456,-0.57452 0,-0.0211 0.04607,-0.0564 0.102416,-0.0784 0.109936,-0.0429 0.76961,-0.34762 1.160708,-0.53604 0.131435,-0.0633 0.238969,-0.13238 0.238969,-0.15347 0,-0.0211 -0.128017,-0.078 -0.284484,-0.12646 -0.675925,-0.20936 -1.670849,-0.6724 -2.213769,-1.0303 -0.329998,-0.21754 -0.837559,-0.67591 -0.969388,-0.87544 -0.06536,-0.0989 -0.09078,-0.0771 -1.139284,0.97864 -1.40594,1.41563 -1.579353,1.61743 -1.984079,2.30881 -0.196966,0.33647 -0.464278,1.06874 -0.464278,1.27183 0,0.0885 -0.02065,0.11692 -0.07784,0.10708 -0.104103,-0.0179 -0.173063,0.13385 -0.307811,0.6773 -0.061,0.24601 -0.172004,0.55993 -0.246678,0.69763 -0.335095,0.61786 -0.503137,1.36009 -0.618331,2.73108 -0.0982,1.16881 -0.197477,1.90572 -0.324848,2.4114 -0.05977,0.23726 -0.108663,0.43698 -0.108663,0.4438 0,0.007 0.07681,0.013 0.170693,0.0137 0.09388,5.4e-4 0.313149,0.062 0.487266,0.13624 0.174112,0.0743 0.384061,0.14767 0.466557,0.16315 0.08249,0.0155 0.149989,0.0367 0.149989,0.0471 0,0.0104 -0.06961,0.16691 -0.154693,0.34771 -0.566607,1.20398 -0.705505,2.34335 -0.619632,5.08287 0.05695,1.81679 0.03763,2.51947 -0.09216,3.34803 -0.116926,0.74654 -0.277376,1.27771 -0.55686,1.84348 -0.129855,0.26287 -0.23654,0.49712 -0.237077,0.52056 -5.38e-4,0.0234 0.07071,0.0602 0.158332,0.0818 0.251098,0.0617 1.730568,0.53249 1.768739,0.56283 0.009,0.007 -0.05511,0.13194 -0.142376,0.27735 -0.822205,1.37006 -1.080561,2.18739 -1.284978,4.06515 -0.015,0.13769 -0.05873,0.42446 -0.0972,0.63725 -0.23362,1.29223 -0.482767,2.12771 -0.845634,2.83572 -0.125732,0.24531 -0.221067,0.45226 -0.211858,0.4599 0.03935,0.0326 1.529447,0.26555 2.156089,0.33703 l 0.68277,0.0779 -0.0058,0.13848 c -0.0032,0.0762 -0.150806,0.43945 -0.328127,0.80732 -0.607875,1.26109 -0.608197,1.32186 -0.01038,1.96662 0.580515,0.6261 0.999236,1.37961 1.221474,2.19816 0.116378,0.42863 0.120055,0.48177 0.123571,1.78457 0.0043,1.54958 -0.0088,1.46528 0.49332,3.21208 0.227244,0.79059 0.317729,1.37259 0.282419,1.81641 -0.07179,0.90216 -0.454542,2.73396 -0.75074,3.59291 -0.05097,0.14787 -0.09271,0.28356 -0.09271,0.30153 0,0.018 0.168989,0.042 0.375524,0.0535 0.412102,0.0228 1.354163,0.28456 1.354163,0.37622 0,0.15273 -1.103781,1.8208 -1.687548,2.55029 -0.627621,0.78429 -0.87315,1.00692 -1.793254,1.62599 -0.930986,0.62639 -1.239694,0.86891 -1.521495,1.19527 -0.381383,0.4417 -0.500492,0.85026 -0.537689,1.84434 -0.07415,1.98158 0.645868,3.22415 2.319045,4.00206 0.801184,0.37249 1.91941,0.64593 3.653359,0.89335 0.600837,0.0857 1.225571,0.17549 1.388296,0.19947 0.466703,0.0687 2.970058,0.35884 3.573164,0.41408 1.646259,0.15077 4.840851,0.16461 5.888155,0.0255 z m -18.298597,-0.34861 c 0.783078,-0.0734 1.160262,-0.18369 1.380366,-0.40379 0.119431,-0.11943 0.241927,-0.19298 0.361234,-0.21687 l 0.180525,-0.0362 -0.204196,-0.28045 c -0.19481,-0.26754 -0.573183,-0.95826 -0.573183,-1.04633 0,-0.0229 -0.240678,-0.0418 -0.534839,-0.0418 -0.678254,0 -0.917852,-0.0852 -1.346443,-0.47789 -1.013864,-0.92903 -1.660618,-2.37927 -1.531269,-3.43361 0.0928,-0.75645 0.54056,-1.56835 1.226195,-2.2234 0.444821,-0.42498 0.798098,-0.65722 1.43531,-0.94355 0.546237,-0.24546 1.88775,-0.11438 2.19398,0.21438 l 0.100158,0.10752 0.270683,-0.22527 c 0.647034,-0.53846 1.595438,-1.64197 2.117687,-2.464 l 0.07476,-0.11768 -0.614735,0.002 c -0.420097,0.001 -0.632056,-0.0156 -0.669453,-0.0531 -0.06567,-0.0657 0.0061,-0.81067 0.14786,-1.53401 0.04903,-0.25035 0.169499,-0.86485 0.267662,-1.36554 0.238222,-1.21508 0.273586,-1.46967 0.305628,-2.20024 0.03231,-0.73695 -0.02978,-1.42347 -0.188374,-2.08165 -0.176279,-0.73165 -0.20203,-0.99359 -0.230169,-2.34097 -0.01435,-0.68847 -0.0458,-1.43141 -0.06986,-1.651 -0.05546,-0.50638 -0.226088,-1.05326 -0.464805,-1.48974 -0.228539,-0.41787 -0.857375,-1.0677 -1.352028,-1.39716 -0.328735,-0.21895 -1.409397,-0.8091 -1.809339,-0.98807 -0.188342,-0.0843 -0.25149,-0.1612 -0.136554,-0.16632 1.501797,-0.0669 1.562945,-0.0732 1.812124,-0.18775 0.315283,-0.14491 0.493416,-0.29645 0.626003,-0.53252 l 0.105323,-0.18755 -0.332917,-0.002 c -0.836328,-0.004 -1.835961,-0.24226 -3.348478,-0.79968 -0.183676,-0.0677 -0.259275,-0.15385 -0.136554,-0.15562 0.151489,-0.002 0.814587,-0.45261 1.131859,-0.76884 0.298102,-0.29712 0.382088,-0.41887 0.599461,-0.86898 0.375335,-0.77721 0.508378,-1.39671 0.669609,-3.11798 0.114087,-1.21795 0.310719,-2.26728 0.52541,-2.80388 0.08662,-0.21652 0.157499,-0.41963 0.157499,-0.45137 0,-0.0983 -0.918051,-0.0305 -1.274499,0.0942 -1.13701,0.39772 -2.14681,1.6006 -3.016669,3.59347 -0.833989,1.91068 -1.015068,2.69073 -0.972129,4.18765 0.02656,0.92475 0.04457,1.06381 0.4105,3.1635 0.113437,0.65091 0.224207,1.40878 0.246152,1.68416 0.05,0.62779 0.03322,1.53567 -0.0365,1.97219 -0.0293,0.18344 -0.04527,0.34157 -0.03543,0.35138 0.0098,0.01 0.180622,-0.0461 0.379577,-0.12417 0.482282,-0.18933 0.973618,-0.22413 1.19518,-0.0846 0.235292,0.14813 0.29737,0.35324 0.269199,0.88943 -0.02489,0.4735 -0.149973,0.94467 -0.442832,1.66795 -0.211207,0.52164 -0.02866,0.23482 0.380764,-0.59828 l 0.36911,-0.75105 0.02962,1.04692 c 0.04521,1.59784 0.09859,1.74601 0.811249,2.2513 0.247576,0.17553 0.492819,0.37341 0.54499,0.43974 0.124457,0.15822 0.127247,0.48705 0.0058,0.68619 -0.198987,0.32634 -0.638239,0.2975 -1.483303,-0.0974 -0.733494,-0.34276 -2.068292,-0.69304 -3.227892,-0.84705 -0.235459,-0.0313 -0.6682,-0.0448 -1.024154,-0.032 -0.789265,0.0283 -1.331492,0.18802 -1.778351,0.52376 -0.37962,0.28521 -0.587418,0.59679 -0.857612,1.2859 -0.476261,1.21466 -0.695108,1.98335 -0.712742,2.50349 -0.0063,0.18776 -0.04247,0.43356 -0.0803,0.54621 -0.06106,0.18198 -0.252307,0.80645 -0.66914,2.18487 -0.756278,2.50092 -1.048288,3.33531 -1.432601,4.0935 -0.06893,0.13599 -0.19803,0.43299 -0.286898,0.66002 -0.137521,0.3513 -0.16151,0.46699 -0.161123,0.77691 3.66e-4,0.30193 0.02177,0.4092 0.12527,0.62786 0.642077,1.35671 4.090525,3.12579 7.376425,3.78417 1.001886,0.20075 1.429424,0.25122 2.45797,0.29015 0.125173,0.005 0.460085,-0.0132 0.744251,-0.0398 z m -4.567759,-1.07383 c -0.760987,-0.11872 -1.363872,-0.46758 -1.593052,-0.92184 -0.244936,-0.48548 0.158446,-1.13618 0.88244,-1.42348 0.216706,-0.086 0.345148,-0.10167 0.847166,-0.10333 0.870897,-0.003 1.382732,0.15723 1.802484,0.56393 0.388092,0.37602 0.39127,0.76202 0.0097,1.18636 -0.22376,0.24887 -0.548919,0.47064 -0.867644,0.59174 -0.223238,0.0848 -0.834473,0.1451 -1.081146,0.10662 z m -2.662801,-3.08274 c -0.496948,-0.11019 -0.747568,-0.34062 -1.051852,-0.96712 -0.335691,-0.69116 -0.333584,-1.15593 0.0067,-1.47996 0.289591,-0.27576 0.539808,-0.3349 1.40929,-0.33308 0.819022,0.002 1.170009,0.0553 1.980031,0.30265 0.483159,0.1475 0.923067,0.3555 1.051111,0.49698 0.07319,0.0809 0.0722,0.10429 -0.01753,0.41606 -0.05231,0.18169 -0.117743,0.45325 -0.145457,0.60346 -0.145242,0.78718 -0.31259,0.87701 -1.821258,0.97767 -0.861478,0.0575 -1.088824,0.0548 -1.411059,-0.0167 z m 2.258134,-3.58168 c -0.492175,-0.0677 -1.598831,-0.34522 -2.098823,-0.5264 -0.897148,-0.32508 -1.206561,-0.58272 -1.205991,-1.00418 5.38e-4,-0.54206 1.022757,-1.37568 2.28359,-1.86261 0.52027,-0.20093 0.73609,-0.19607 1.188497,0.0268 0.815092,0.40144 1.91226,1.81133 1.975784,2.53892 0.03021,0.34587 -0.08643,0.5284 -0.455429,0.71283 -0.242216,0.12106 -0.311681,0.13336 -0.819323,0.14504 -0.305074,0.007 -0.695806,-0.007 -0.868305,-0.0304 z m 4.068864,-1.94065 c -0.61331,-0.10719 -1.604325,-0.46317 -1.974042,-0.70908 -0.53556,-0.35623 -1.023304,-0.9868 -1.18454,-1.53142 -0.158381,-0.53496 -0.05743,-1.16704 0.246867,-1.5457 0.57601,-0.71677 1.571165,-0.71413 2.649306,0.007 0.655351,0.43836 1.008321,0.96312 1.231877,1.83142 0.112383,0.43651 0.136463,0.59421 0.191117,1.25175 0.03145,0.37835 -0.0617,0.589 -0.295747,0.66882 -0.154392,0.0526 -0.633035,0.0677 -0.864838,0.0272 z m 63.489015,7.31357 c 2.31087,-0.16283 4.7679,-0.64937 6.54036,-1.29513 1.52407,-0.55527 2.94532,-1.32845 3.87099,-2.10589 0.80371,-0.67502 1.19685,-1.53782 1.57105,-3.44784 0.0785,-0.40066 0.10132,-0.7099 0.11427,-1.54762 0.009,-0.5758 -0.002,-1.16981 -0.0239,-1.32002 -0.022,-0.15021 -0.0532,-0.37552 -0.0693,-0.5007 -0.0418,-0.32572 -0.24004,-1.14513 -0.31779,-1.3136 -0.0363,-0.0786 -0.10823,-0.25214 -0.15986,-0.38556 -0.11891,-0.3073 -0.38751,-0.70027 -0.65815,-0.96287 -0.21541,-0.20902 -0.46324,-0.37459 -1.30043,-0.86883 -0.26287,-0.15518 -0.52915,-0.31704 -0.59173,-0.35969 -0.2156,-0.1469 -1.75329,-0.89214 -2.18486,-1.0589 -1.56579,-0.60498 -3.05509,-0.83249 -4.27256,-0.6527 -0.28453,0.042 -0.52524,0.0685 -0.53491,0.0588 -0.01,-0.01 0.042,-0.19607 0.11481,-0.4142 0.13764,-0.41227 0.36343,-0.82957 0.5372,-0.99281 l 0.1009,-0.0948 -0.21448,-0.14052 c -0.31555,-0.20674 -0.92392,-0.83062 -1.11566,-1.14411 -0.23697,-0.38746 -0.55196,-1.03786 -0.68337,-1.41106 -0.35884,-1.01909 -0.45985,-2.53191 -0.23523,-3.52282 0.0824,-0.36341 0.24738,-0.82414 0.29517,-0.82414 0.0191,0 0.15786,0.16957 0.30844,0.37683 0.33223,0.45726 0.6358,0.79943 0.88288,0.99512 l 0.18476,0.14633 -0.0334,-0.15602 c -0.0184,-0.0858 -0.0497,-0.17652 -0.0696,-0.20156 -0.10798,-0.13592 -0.33703,-1.59669 -0.48175,-3.07246 -0.0635,-0.64754 -0.16237,-1.47825 -0.17916,-1.50543 -0.0107,-0.0174 -0.0306,-0.11076 -0.0442,-0.20756 -0.0327,-0.2336 -0.0462,-0.28665 -0.20089,-0.7905 -0.38735,-1.262 -1.30988,-2.28401 -2.63099,-2.91469 -0.20605,-0.0984 -0.90248,-0.3647 -1.54761,-0.59185 -1.69133,-0.59551 -2.18599,-0.83512 -2.90256,-1.40598 -0.51278,-0.40851 -0.64227,-0.45859 -1.18569,-0.45859 h -0.46464 l -0.0335,1.16252 c -0.0475,1.64627 0.001,2.78313 0.21241,4.95964 0.0291,0.30042 0.0534,1.25288 0.054,2.11658 0.001,1.3793 -0.0116,1.66453 -0.10243,2.34418 -0.26502,1.98298 -0.66152,3.33066 -1.39273,4.73387 -0.20873,0.40056 -0.4145,0.84956 -0.45728,0.99778 -0.0866,0.30001 -0.0754,0.6542 0.0403,1.27811 0.10088,0.5441 0.12595,0.84841 0.12428,1.50842 -0.002,0.77893 -0.16058,2.52201 -0.27901,3.06614 -0.0245,0.11266 -0.0852,0.51208 -0.13492,0.8876 -0.25984,1.9638 -0.25173,3.20419 0.0265,4.05656 0.19119,0.58567 0.51532,0.92386 1.06646,1.1127 0.23663,0.0811 0.39611,0.1012 0.79656,0.10049 0.53035,-10e-4 0.95646,-0.0789 1.79795,-0.32886 0.98355,-0.29219 1.48782,-0.38433 2.09384,-0.38258 0.65504,0.002 0.89559,0.0649 1.89782,0.49711 1.10163,0.47507 1.70758,0.8507 2.18072,1.35184 0.49154,0.52062 0.67488,0.93578 0.64803,1.46743 -0.0266,0.52696 -0.21087,0.85272 -1.11633,1.97356 -0.33501,0.41469 -0.59371,0.84944 -0.67417,1.13296 -0.0347,0.1224 -0.078,0.11952 0.83339,0.0553 z m 3.17203,-0.88199 c -0.0751,-0.0334 -0.18776,-0.11616 -0.25035,-0.18397 -0.0969,-0.10502 -0.11325,-0.16487 -0.11011,-0.40408 0.004,-0.30378 0.0863,-0.51345 0.286,-0.72878 0.26484,-0.28551 0.70633,-0.4193 1.60144,-0.48531 0.36184,-0.0267 1.03682,-0.10153 1.49997,-0.16631 0.94334,-0.13197 1.27998,-0.12592 1.69812,0.0305 0.32489,0.12156 0.32663,0.20008 0.008,0.37309 -0.255,0.13855 -1.01948,0.47081 -1.50152,0.65258 -2.51147,0.94705 -2.9041,1.05789 -3.23178,0.91225 z m 1.13795,-2.96687 c -0.34064,-0.0847 -0.4831,-0.17048 -0.5921,-0.35649 -0.17253,-0.29439 -0.15312,-0.50943 0.0914,-1.01197 0.33041,-0.6792 1.07818,-1.38236 1.92196,-1.80727 0.52251,-0.26314 0.80913,-0.32124 1.5602,-0.31631 0.74783,0.005 1.22597,0.0869 1.52337,0.26117 0.25725,0.15076 0.34287,0.29196 0.34287,0.56546 0,0.18515 -0.0311,0.2703 -0.17911,0.49092 -0.0985,0.1468 -0.27774,0.36215 -0.39828,0.47856 -0.71506,0.69052 -2.06853,1.4255 -2.9667,1.61103 -0.3566,0.0736 -1.14287,0.12486 -1.30357,0.0849 z m -3.30005,-2.6666 c -0.14236,-0.0735 -0.23954,-0.16829 -0.31863,-0.31065 -0.55803,-1.00446 0.98998,-4.06721 2.71525,-5.3721 0.5396,-0.40813 1.1201,-0.62618 1.51279,-0.56823 0.46725,0.0689 0.75043,0.31516 1.41373,1.22922 0.91824,1.26537 0.95894,1.94036 0.16486,2.73397 -0.62987,0.6295 -1.80441,1.34224 -3.18141,1.93055 -0.69588,0.29732 -1.13309,0.41418 -1.64658,0.44009 -0.41284,0.0209 -0.47423,0.0131 -0.66001,-0.0829 z m -4.07831,-1.9009 c -0.72091,-0.11422 -1.28955,-0.46607 -1.52314,-0.94245 -0.16145,-0.32925 -0.15317,-0.97867 0.0196,-1.53392 0.16666,-0.53575 0.51216,-1.34242 0.74596,-1.74167 0.5036,-0.85997 1.26799,-1.19548 2.4416,-1.0717 0.99822,0.10529 1.66729,0.4822 1.92393,1.08382 0.11555,0.27084 0.10599,0.83482 -0.0205,1.21288 -0.52328,1.56356 -1.26594,2.55044 -2.1839,2.90204 -0.29034,0.11121 -0.98972,0.15656 -1.40347,0.091 z M 94.748733,214.24351 c 0.995747,-0.33269 2.136552,-1.08772 3.123955,-2.06755 0.260178,-0.25819 0.487938,-0.45278 0.506131,-0.43242 0.07698,0.0861 0.283194,0.70348 0.356062,1.06592 l 0.07874,0.39166 0.112597,-0.0719 c 0.229594,-0.14666 0.989544,-0.7182 1.364342,-1.02608 1.31688,-1.08178 2.7782,-2.58093 4.02806,-4.13234 0.19243,-0.23885 0.32977,-0.37373 0.34722,-0.341 0.046,0.0863 0.25637,1.02083 0.31959,1.4197 0.068,0.42933 0.0719,1.86331 0.006,2.17348 -0.0253,0.11892 -0.0332,0.21622 -0.0175,0.21622 0.053,0 0.93525,-0.51053 1.31953,-0.76359 1.48407,-0.97734 2.69579,-2.13886 3.92821,-3.76546 0.27364,-0.36115 1.06074,-1.55039 1.31048,-1.98003 0.10915,-0.18776 0.25362,-0.43356 0.32104,-0.54621 0.0674,-0.11266 0.19823,-0.34309 0.29068,-0.51208 0.0925,-0.16898 0.18342,-0.30725 0.20213,-0.30725 0.0696,0 0.39621,2.3175 0.48756,3.45937 0.015,0.18776 0.0432,0.35785 0.0626,0.37798 0.0649,0.0673 0.80217,-1.27284 1.21877,-2.21547 0.46181,-1.04491 0.87457,-2.46848 0.98843,-3.40897 0.0778,-0.64268 0.0588,-1.87896 -0.0369,-2.40056 -0.10163,-0.5538 -0.3231,-1.22765 -0.56398,-1.71602 -0.11458,-0.23228 -0.19641,-0.43423 -0.18186,-0.44878 0.0146,-0.0146 0.15646,0.0247 0.31534,0.0873 0.15887,0.0626 0.46298,0.17918 0.67577,0.2591 0.43248,0.16242 0.39077,0.1448 1.37692,0.58163 0.42326,0.18748 0.71691,0.29472 0.71691,0.2618 0,-0.0307 -0.0305,-0.14646 -0.0678,-0.25733 -0.12504,-0.37159 -0.34507,-1.51561 -0.4113,-2.13851 -0.0361,-0.33932 -0.0962,-1.21082 -0.13367,-1.93667 -0.0816,-1.5812 -0.25924,-3.09844 -0.39253,-3.35173 -0.0229,-0.0435 -0.0416,-0.12643 -0.0416,-0.18435 0,-0.0579 -0.017,-0.12477 -0.0379,-0.14855 -0.0208,-0.0238 -0.0641,-0.13541 -0.0962,-0.24807 -0.0583,-0.20447 -0.20072,-0.55357 -0.27861,-0.68277 -0.0226,-0.0376 -0.071,-0.13462 -0.10758,-0.2157 -0.11683,-0.25932 -0.64236,-1.01394 -0.83584,-1.20022 -0.0678,-0.0653 -0.17595,-0.17793 -0.24035,-0.25035 -0.11591,-0.13034 -0.70573,-0.66603 -0.84741,-0.76963 -0.05,-0.0366 -0.0573,-0.0636 -0.0228,-0.085 0.0618,-0.0382 1.2896,-0.22033 2.20489,-0.32708 0.36927,-0.0431 0.6714,-0.0958 0.6714,-0.11726 0,-0.0215 -0.017,-0.039 -0.0377,-0.039 -0.0445,0 -0.76193,-0.62213 -1.05238,-0.91266 -0.34859,-0.34866 -0.9424,-1.03581 -1.13874,-1.31772 -0.061,-0.0876 -0.12323,-0.16956 -0.13825,-0.18208 -0.015,-0.0125 -0.0895,-0.11493 -0.16553,-0.22759 -0.13682,-0.20271 -0.19176,-0.28912 -0.54992,-0.86484 -0.35296,-0.56735 -0.89568,-1.77004 -1.15025,-2.549 -0.1811,-0.55416 -0.41853,-1.46327 -0.38968,-1.49211 0.0199,-0.0199 0.50268,0.0637 1.00833,0.17456 0.49999,0.10962 1.812,0.30957 2.06141,0.31416 l 0.10867,0.002 -0.0322,-0.39828 c -0.0439,-0.54297 -0.19601,-1.37229 -0.2984,-1.62727 -0.0201,-0.05 -0.10329,-0.28563 -0.18485,-0.52346 -0.0816,-0.23783 -0.16167,-0.44266 -0.17802,-0.45518 -0.0163,-0.0125 -0.0579,-0.0944 -0.0924,-0.18207 -0.0659,-0.16737 -0.31573,-0.58226 -0.53233,-0.88392 -0.18465,-0.25713 -0.85651,-0.92136 -1.06524,-1.05313 -0.0979,-0.0618 -0.17805,-0.12973 -0.17805,-0.1509 0,-0.0514 0.42127,-0.32864 0.75539,-0.49715 0.29444,-0.1485 0.85284,-0.32764 1.02472,-0.32875 0.25458,-0.002 0.25383,-0.0711 -0.004,-0.34915 -0.13484,-0.14555 -0.35924,-0.38778 -0.49867,-0.53829 -0.13944,-0.1505 -0.36442,-0.3963 -0.49995,-0.54621 -0.13554,-0.14991 -0.39158,-0.42621 -0.56897,-0.61399 -0.27854,-0.29482 -1.0171,-1.09174 -1.41319,-1.52482 l -0.12488,-0.13655 0.56224,-0.0275 c 0.51707,-0.0253 0.85811,-0.0938 0.85811,-0.17244 0,-0.0174 -0.0973,-0.10648 -0.21621,-0.19787 -0.65449,-0.503 -1.56176,-1.53653 -2.45479,-2.79641 -0.41307,-0.58276 -1.09519,-1.41648 -1.42692,-1.74405 -0.67821,-0.66971 -1.63922,-1.26054 -2.51647,-1.54712 -0.17059,-0.0557 -0.29922,-0.11226 -0.28585,-0.12562 0.0838,-0.0838 1.99411,-0.81407 2.53866,-0.97051 l 0.34951,-0.10041 -0.25848,-0.19044 c -0.30787,-0.22683 -1.14446,-0.93861 -1.71506,-1.45919 -1.09327,-0.99744 -1.88921,-1.61187 -2.34898,-1.81334 -0.46257,-0.20269 -0.97439,-0.34471 -1.74763,-0.48492 -0.4256,-0.0772 -0.98629,-0.20153 -1.24599,-0.27635 -0.49417,-0.14237 -0.97338,-0.35062 -0.93811,-0.40768 0.0113,-0.0184 0.20017,-0.0477 0.4196,-0.0652 0.48676,-0.0388 1.12731,-0.17225 1.39497,-0.29065 0.34705,-0.15351 0.7276,-0.41824 0.67576,-0.47009 -0.0258,-0.0258 -0.21321,-0.115 -0.41641,-0.19818 -0.46163,-0.18896 -1.48613,-0.7568 -1.72053,-0.9536 -0.0305,-0.0256 -0.16019,-0.11829 -0.28814,-0.20592 -0.12796,-0.0876 -0.656022,-0.47384 -1.173486,-0.85828 -1.173262,-0.87163 -1.671979,-1.21532 -2.297627,-1.58339 -0.270554,-0.15917 -0.499218,-0.2894 -0.508131,-0.2894 -0.0089,0 -0.186961,-0.0812 -0.395662,-0.18046 -0.208697,-0.0992 -0.579161,-0.24595 -0.823248,-0.32601 -0.244093,-0.08 -0.4438,-0.16026 -0.4438,-0.17824 0,-0.018 0.230432,-0.0579 0.512077,-0.0888 0.440805,-0.0483 0.586681,-0.0456 1.048158,0.0191 1.113898,0.15613 2.004267,0.55404 3.560539,1.59119 0.30042,0.20021 0.78177,0.52115 1.06967,0.71319 1.09981,0.73364 1.75906,1.08368 2.50748,1.33141 0.57011,0.18871 0.90697,0.25264 1.55616,0.29537 l 0.49048,0.0323 -0.72663,0.72829 c -0.39965,0.40056 -0.71254,0.74118 -0.69531,0.75693 0.0172,0.0157 0.11325,0.0535 0.21339,0.0839 0.26587,0.0807 1.77234,0.65203 2.09382,0.79411 0.25483,0.11261 0.74596,0.27433 0.76756,0.25273 0.0118,-0.0118 0.001,-0.12389 -0.0237,-0.24905 -0.0836,-0.42074 0.0484,-1.59701 0.25253,-2.25019 0.0357,-0.11426 0.10164,-0.34994 0.14652,-0.52373 l 0.0816,-0.31598 0.0644,0.15667 c 0.0354,0.0862 0.1717,0.46392 0.3029,0.83944 0.35277,1.00972 0.51552,1.39819 0.77756,1.85594 0.55779,0.97438 1.15934,1.42494 2.6832,2.00976 0.37552,0.14411 0.89784,0.34443 1.16071,0.44516 1.03892,0.39809 1.7807,0.86777 2.20431,1.39573 0.27602,0.344 0.35997,0.49548 0.50594,0.91292 0.057,0.16307 0.12089,0.30195 0.14191,0.30863 0.021,0.007 0.0827,-0.0542 0.13713,-0.13519 0.0544,-0.081 0.18635,-0.27022 0.29321,-0.42043 0.27972,-0.39318 0.6473,-1.05374 0.78829,-1.41661 0.0669,-0.17219 0.14003,-0.35404 0.16248,-0.40411 0.0978,-0.21813 0.17826,-0.53999 0.273,-1.09243 0.0812,-0.47365 0.0962,-0.69166 0.075,-1.09243 -0.0347,-0.65603 -0.20551,-1.58986 -0.34969,-1.91176 -0.0224,-0.05 -0.0841,-0.22417 -0.13705,-0.3869 -0.0936,-0.28754 -0.52183,-1.29679 -0.58911,-1.3883 -0.0184,-0.0251 -0.16236,-0.29132 -0.31989,-0.59173 -0.15753,-0.30042 -0.32423,-0.59507 -0.37043,-0.65477 -0.125,-0.16152 -0.10592,-0.18732 0.13855,-0.18732 0.26875,0 0.83889,0.15043 1.5754,0.41567 0.50715,0.18264 0.57931,0.19678 1.00898,0.19777 0.25452,5.4e-4 0.47701,-0.0132 0.49441,-0.0306 0.0174,-0.0174 -0.0402,-0.11982 -0.12798,-0.22759 -0.23391,-0.28712 -0.41692,-0.61716 -0.61971,-1.11761 -0.31187,-0.76963 -0.44531,-1.35132 -0.66568,-2.90185 -0.2751,-1.9355 -0.36691,-2.44562 -0.57344,-3.18625 -0.4255,-1.52579 -1.33951,-2.61549 -2.68008,-3.19523 -1.3677,-0.59148 -3.0937,-0.57474 -5.6664,0.0549 -0.46935,0.11487 -0.86113,0.20107 -0.87065,0.19156 -0.009,-0.01 0.18069,-0.30241 0.42269,-0.65088 0.39606,-0.57031 0.6144,-0.85657 1.06613,-1.39776 0.0792,-0.0949 0.1362,-0.17678 0.12674,-0.18207 -0.0653,-0.0365 -4.41299,0.0549 -4.72832,0.0994 -1.86798,0.26372 -2.74479,0.68836 -3.94655,1.91133 -0.37788,0.38455 -0.656073,0.70474 -1.803933,2.07628 -0.659824,0.7884 -1.30452,1.47933 -1.38035,1.47933 -0.109889,0 -0.466246,-1.15024 -0.56779,-1.8327 -0.08313,-0.55873 -0.06325,-1.64611 0.04075,-2.22978 0.04795,-0.26912 0.0709,-0.48932 0.05097,-0.48932 -0.04753,0 -0.478713,0.54124 -0.707097,0.88761 -0.360255,0.54636 -0.708483,1.40653 -0.856865,2.11658 -0.09257,0.44299 -0.198374,1.35935 -0.233459,2.022 l -0.03113,0.58819 -0.254894,-0.29232 c -1.276402,-1.4638 -2.54702,-2.31963 -4.010571,-2.70133 -0.137694,-0.0359 -0.262501,-0.0514 -0.277355,-0.0344 -0.01484,0.017 -0.05204,0.20503 -0.08269,0.41783 -0.179305,1.24579 -0.492293,2.2287 -1.009515,3.17025 -0.346476,0.63072 -0.745084,1.02546 -1.319078,1.30627 -0.820237,0.40127 -2.0519,0.69484 -3.126288,0.74517 l -0.557592,0.0261 v -0.2064 c 0,-0.36295 0.385104,-1.37799 0.771325,-2.03303 0.07647,-0.12969 0.139033,-0.25167 0.139033,-0.27108 0,-0.0901 -1.311923,0.1419 -1.934512,0.34202 -1.557488,0.50063 -2.657473,1.53464 -3.137626,2.94946 -0.170945,0.5037 -0.221836,0.87338 -0.248937,1.80839 l -0.02726,0.9412 -0.299005,-0.28119 c -1.588815,-1.49417 -2.708691,-2.18417 -3.973804,-2.44841 -0.421494,-0.088 -1.509108,-0.16695 -1.635028,-0.11862 -0.05333,0.0204 0.0164,0.15519 0.309682,0.59853 0.208169,0.31467 0.485642,0.75135 0.616616,0.9704 0.496384,0.83021 0.875294,1.30873 1.268666,1.60218 l 0.247189,0.1844 h -0.580166 c -1.249156,0 -3.094913,0.20019 -4.374971,0.4745 -1.583165,0.33927 -3.419288,1.02707 -4.404771,1.65 l -0.192547,0.12171 0.324934,0.08 c 0.659754,0.16243 1.472207,0.69532 2.292353,1.50358 l 0.432419,0.42615 -0.68277,0.028 c -0.75989,0.0312 -1.276978,0.0954 -1.82072,0.22619 -2.273724,0.5469 -4.411153,1.91272 -6.031752,3.85429 -0.337089,0.40385 -0.909766,1.20759 -0.909707,1.27675 1.1e-5,0.0172 0.322622,0.0335 0.716908,0.036 0.621197,0.004 0.780664,0.021 1.194745,0.12757 0.504674,0.12987 1.203265,0.42379 1.660441,0.6986 0.441101,0.26515 1.216754,0.7908 1.196615,0.81093 -0.01016,0.0102 -0.293585,0.0386 -0.629798,0.0631 -1.090813,0.0796 -1.888986,0.2588 -2.659607,0.59715 -1.662167,0.72979 -2.871766,2.03308 -3.821009,4.11699 -0.136613,0.29992 -0.261543,0.60038 -0.277618,0.66771 l -0.02925,0.12241 0.243211,-0.0925 c 0.506852,-0.19274 0.906422,-0.26471 1.472195,-0.26518 0.557307,-4.5e-4 0.705538,0.0239 1.18002,0.19365 0.291703,0.10437 0.857364,0.45377 1.127413,0.69637 l 0.168085,0.151 -0.259124,0.0733 c -1.546333,0.43732 -2.440476,1.23304 -2.992922,2.66351 -0.188294,0.48756 -0.395528,1.3283 -0.49347,2.00202 -0.09514,0.65444 -0.259367,2.28656 -0.23276,2.31316 0.01194,0.0119 0.154929,-0.0221 0.317832,-0.0756 0.467164,-0.15336 0.901175,-0.2025 1.577159,-0.17856 0.340901,0.0121 0.643835,0.0368 0.673189,0.0549 0.03446,0.0213 -0.09739,0.18107 -0.37254,0.45134 -0.486002,0.47739 -0.844929,0.97824 -1.086898,1.51665 -0.251388,0.55938 -0.330783,0.97372 -0.325525,1.69883 0.0054,0.72921 0.09888,1.23493 0.395942,2.13934 0.197696,0.60191 0.299176,0.87625 0.732455,1.98004 0.359443,0.91568 0.597778,1.57507 0.707446,1.95727 0.05747,0.20028 0.120269,0.38217 0.139553,0.40421 0.07143,0.0816 0.09885,-0.32622 0.07658,-1.13896 -0.01258,-0.45959 -0.01027,-0.83492 0.0048,-0.83405 0.03274,0.002 1.028465,1.40243 1.374167,1.93294 0.566564,0.86944 0.972823,1.73008 1.154939,2.44672 0.05569,0.21911 0.110867,0.40802 0.122625,0.41977 0.01177,0.0118 0.25342,-0.0395 0.537038,-0.11392 0.283613,-0.0744 0.521867,-0.13528 0.529453,-0.13528 0.0076,0 -0.04511,0.12991 -0.117108,0.28869 -0.260646,0.57483 -0.338391,0.98077 -0.337004,1.75962 0.0011,0.74779 0.02608,0.91446 0.358406,2.41245 0.195181,0.87982 0.272076,1.58148 0.23197,2.11658 l -0.0307,0.40966 0.264215,-0.26611 c 0.334149,-0.33654 0.710575,-0.60681 1.174579,-0.84333 0.438101,-0.22332 0.660007,-0.28048 0.660007,-0.17 0,0.0411 -0.04952,0.32529 -0.110077,0.63156 -0.17559,0.88821 -0.222905,1.40292 -0.222755,2.42308 1.83e-4,1.28835 0.111174,2.2688 0.381276,3.36833 0.08894,0.36207 0.390345,1.08946 0.61681,1.48858 0.342078,0.60286 1.250301,1.90251 1.329513,1.90251 0.01769,0 0.06996,-0.10753 0.116146,-0.23897 0.04618,-0.13143 0.121253,-0.32175 0.166811,-0.42293 0.04554,-0.10118 0.109743,-0.27016 0.142623,-0.37552 0.0329,-0.10536 0.07208,-0.19156 0.08711,-0.19156 0.015,0 0.06398,0.17922 0.108775,0.39828 0.188289,0.92062 0.515115,1.71604 0.893057,2.17348 0.233572,0.2827 0.474138,0.46494 1.111963,0.84236 1.094985,0.64795 1.270343,1.07537 0.676038,1.64779 -0.137575,0.13251 -0.300144,0.27127 -0.36126,0.30837 -0.06112,0.0371 -0.111125,0.0817 -0.111125,0.0991 0,0.0174 0.117775,0.0867 0.261727,0.15407 1.283913,0.60056 1.892422,0.80188 2.745421,0.90829 l 0.207798,0.0259 -0.13965,0.28297 c -0.07681,0.15562 -0.189391,0.39561 -0.250179,0.5333 -0.06079,0.1377 -0.117366,0.26152 -0.125721,0.27515 -0.0083,0.0137 0.195057,0.0597 0.452042,0.10241 1.256995,0.20876 3.075161,0.30294 5.906633,0.30594 2.602346,0.003 4.55955,0.0673 5.484918,0.18088 0.682167,0.0837 1.565176,0.20714 1.713724,0.23952 0.03672,0.008 0.04919,-0.13462 0.04279,-0.4894 -0.0098,-0.54475 0.06649,-1.00839 0.230959,-1.40259 0.05417,-0.12983 0.110641,-0.25053 0.125495,-0.26823 0.01484,-0.0177 0.180488,0.0599 0.368083,0.17248 0.870988,0.52256 2.947521,1.50887 4.09631,1.94567 0.162725,0.0619 0.326589,0.12454 0.364142,0.13927 0.03758,0.0147 0.303832,0.0188 0.591735,0.009 0.408162,-0.0138 0.601149,-0.0436 0.876208,-0.13553 z m -6.133532,-10.75204 c -1.507297,-0.21764 -2.340846,-0.58675 -3.057152,-1.35376 -0.628604,-0.6731 -0.933673,-1.50841 -0.932937,-2.55447 5.38e-4,-0.80606 0.216411,-1.46335 0.680603,-2.07257 0.751627,-0.98646 2.01396,-1.6981 3.826976,-2.15742 0.95556,-0.2421 1.602901,-0.3194 2.668769,-0.31872 0.961075,5.4e-4 1.445213,0.0595 2.092408,0.25462 1.784023,0.53777 2.78156,1.85928 2.776393,3.67809 -0.0016,0.50082 -0.01704,0.61533 -0.130591,0.95588 -0.15857,0.47567 -0.255689,0.67254 -0.506303,1.0263 -0.80819,1.14083 -2.527661,2.01937 -4.726732,2.41505 -0.522002,0.0939 -0.823157,0.11864 -1.599003,0.13122 -0.525733,0.009 -1.017327,0.007 -1.092431,-0.004 z m -0.384287,-4.138 c 0.61853,-0.16028 1.005424,-0.44647 1.159633,-0.8578 0.07195,-0.19194 0.07551,-0.24919 0.02683,-0.43243 -0.08846,-0.33306 -0.223685,-0.49424 -0.550887,-0.65659 -0.270442,-0.13419 -0.330859,-0.14626 -0.728284,-0.14541 -1.305627,0.003 -2.133509,0.89477 -1.576477,1.69857 0.06428,0.0928 0.181665,0.20692 0.26085,0.2537 0.345127,0.20387 0.935314,0.26253 1.408322,0.13996 z m -14.158702,-4.47826 c -1.254462,-0.21437 -2.355882,-1.15856 -2.895501,-2.48213 -0.254738,-0.62483 -0.311332,-0.95062 -0.308935,-1.77838 0.0016,-0.604 0.01914,-0.79044 0.101905,-1.09243 0.456864,-1.66708 1.695618,-2.68347 3.521375,-2.88929 1.769491,-0.19949 3.224973,0.67109 3.99776,2.3912 0.261641,0.58237 0.336772,0.99604 0.338493,1.86363 0.0016,0.9135 -0.07865,1.29254 -0.410237,1.93267 -0.504427,0.97379 -1.254904,1.57886 -2.387586,1.92497 -0.37341,0.1141 -0.522485,0.13436 -1.092431,0.14844 -0.363007,0.009 -0.752186,5.4e-4 -0.864843,-0.0187 z m 1.906341,-4.49496 c 0.468525,-0.15131 0.776266,-0.54589 0.778222,-0.99781 0.0016,-0.35598 -0.112479,-0.62869 -0.350411,-0.83813 -0.786561,-0.69235 -2.045819,5e-4 -1.836187,1.01032 0.08869,0.42717 0.338347,0.70809 0.741117,0.83386 0.262758,0.0821 0.392678,0.0804 0.667259,-0.008 z m 22.873888,-1.17556 c -0.528867,-0.12245 -0.893003,-0.29324 -1.354039,-0.63506 -0.297973,-0.22092 -0.444537,-0.37144 -0.818394,-0.84049 -0.213981,-0.26846 -0.559914,-1.04075 -0.695398,-1.55244 -0.111571,-0.42138 -0.126237,-0.55606 -0.12393,-1.13795 0.0022,-0.56487 0.01989,-0.72417 0.122608,-1.10509 0.140489,-0.52112 0.438338,-1.13226 0.730837,-1.49953 0.645857,-0.81097 1.775002,-1.34931 2.995623,-1.42823 1.561472,-0.10095 2.931922,0.70653 3.675682,2.16574 0.44632,0.87565 0.60543,2.22706 0.36888,3.13301 -0.14272,0.54657 -0.24982,0.80997 -0.48334,1.18874 -0.46845,0.7598 -1.27823,1.37719 -2.11557,1.61293 -0.83642,0.23549 -1.574583,0.26702 -2.302959,0.0984 z m 2.268819,-4.47969 c 0.59179,-0.25367 0.80996,-0.88745 0.51132,-1.48542 -0.17342,-0.34723 -0.44702,-0.53043 -0.83397,-0.55842 -0.48257,-0.0349 -0.832991,0.129 -1.088405,0.50909 -0.130221,0.19379 -0.147936,0.2566 -0.147936,0.52468 0,0.31964 0.133221,0.67809 0.31223,0.84009 0.286831,0.25957 0.856541,0.33725 1.246761,0.16998 z m -30.303578,25.81002 c 0.305278,-0.13887 0.32932,-0.20123 0.159988,-0.41502 -0.196202,-0.24773 -0.309305,-0.31948 -0.503567,-0.31948 -0.195229,0 -0.318799,0.11454 -0.432639,0.40104 -0.06135,0.1544 -0.06718,0.21988 -0.02736,0.30725 0.04586,0.1007 0.07715,0.11094 0.336051,0.11003 0.177036,-5.4e-4 0.354616,-0.0325 0.467536,-0.0838 z M 51.22077,178.23254 c -0.06593,-0.28435 -0.05193,-1.06474 0.02435,-1.35763 0.21726,-0.83412 0.644411,-1.50345 1.822736,-2.85616 1.256968,-1.443 1.486438,-1.84601 1.617153,-2.84022 0.06838,-0.52013 0.02763,-1.29072 -0.12113,-2.29098 -0.175891,-1.18261 -0.173364,-1.15938 -0.123941,-1.14038 0.02505,0.01 0.295322,0.29403 0.600584,0.632 0.75796,0.83917 1.068034,1.3109 1.2963,1.97213 0.02446,0.0709 0.08046,0.0387 0.381555,-0.22018 0.194073,-0.16681 0.414307,-0.3353 0.489411,-0.37439 0.16372,-0.0852 0.220927,-0.16165 0.443252,-0.5921 0.767729,-1.48641 1.869095,-2.75806 3.084391,-3.56127 0.734494,-0.48544 0.705027,-0.45289 0.386905,-0.42746 -0.985806,0.0788 -1.885352,0.27808 -2.875324,0.63695 -0.313182,0.11354 -0.576763,0.19908 -0.585736,0.19011 -0.009,-0.009 0.152833,-0.23075 0.359572,-0.49284 0.20674,-0.26208 0.487315,-0.62193 0.623498,-0.79966 1.589761,-2.07475 2.55703,-3.19577 3.535245,-4.0972 1.347152,-1.24142 2.692988,-2.05504 4.245078,-2.56636 0.50769,-0.16726 0.634186,-0.22383 0.546721,-0.24449 -0.06258,-0.0148 -0.871665,-0.0346 -1.797957,-0.0441 -1.351298,-0.0139 -1.746573,-0.0319 -1.999918,-0.0915 -0.173665,-0.0408 -0.334885,-0.0933 -0.358271,-0.11672 -0.02634,-0.0263 0.06485,-0.10881 0.23977,-0.21681 0.155258,-0.0959 0.879767,-0.56847 1.610013,-1.05023 0.730252,-0.48177 1.389178,-0.91483 1.464283,-0.96235 0.682355,-0.43173 1.390392,-0.82901 1.949866,-1.09407 l 0.462089,-0.21892 -0.386652,-0.19435 c -0.5287,-0.26574 -1.139918,-0.64158 -1.539053,-0.94638 -0.713467,-0.54483 -1.39928,-1.39984 -1.657995,-2.06704 -0.05626,-0.14509 -0.11427,-0.26381 -0.128909,-0.26381 -0.06558,0 -0.609482,0.53616 -0.860768,0.84853 -0.709392,0.88182 -1.191105,1.91391 -1.553161,3.32771 -0.08494,0.33169 -0.166037,0.60309 -0.180203,0.60311 -0.01419,2e-5 -0.07397,-0.087 -0.132909,-0.19342 -0.66856,-1.20699 -1.380522,-2.12785 -2.16275,-2.79733 -0.506168,-0.43322 -1.377172,-0.91954 -1.865449,-1.04157 l -0.135774,-0.0339 0.187175,0.2238 c 0.828071,0.99012 1.509275,2.54963 1.593756,3.64862 0.02532,0.32915 0.01968,0.37593 -0.04537,0.37593 -0.09997,0 -1.178965,-0.30893 -1.964687,-0.56252 -1.152117,-0.37184 -1.329245,-0.43683 -3.095225,-1.13574 -0.787443,-0.31164 -1.16888,-0.37481 -1.824166,-0.30207 -0.248453,0.0276 -0.577661,0.0792 -0.731574,0.11479 -0.833226,0.19252 -2.005219,0.71996 -3.771253,1.6972 -0.550769,0.30476 -1.14981,0.63056 -1.331207,0.724 -0.307547,0.15841 -0.400952,0.23815 -0.278946,0.23815 0.110775,0 0.915013,0.34448 1.541876,0.66044 0.913594,0.46047 0.921814,0.46506 0.879079,0.49147 -0.02091,0.013 -0.33482,0.098 -0.697537,0.18898 -1.393812,0.3497 -2.271827,0.65375 -3.110945,1.07731 -1.474029,0.74403 -2.504345,1.85401 -2.87718,3.09963 -0.341616,1.14134 -0.212077,2.32112 0.468617,4.26806 1.169503,3.34504 1.253505,3.66069 1.259903,4.73434 0.0022,0.38804 -0.01167,0.79412 -0.03102,0.90239 -0.03392,0.18964 -0.0314,0.19579 0.06828,0.16762 0.05692,-0.0161 0.235727,-0.0944 0.397339,-0.17411 0.29986,-0.14782 0.412839,-0.24984 1.323251,-1.19502 0.263527,-0.2736 0.565655,-0.54484 0.671388,-0.60277 l 0.19225,-0.10533 v 1.13556 c 0,1.95065 0.216352,3.11482 0.798066,4.29424 0.613885,1.24465 1.605041,2.17898 3.114644,2.93608 0.311929,0.15644 0.571956,0.27962 0.577838,0.27374 0.0059,-0.006 -0.0082,-0.0921 -0.03124,-0.19149 z"
         style="fill:#000000;stroke-width:0.04551796" />
    </g>
  </g>
</svg>
